{"title":"Enrique Bunbury - Llevame (h264/mp4)","uid":7049303,"size":132951343,"categoryP":"video","categoryS":"music_videos","magnet":"?xt=urn:btih:faaddbff5f8582fcd98ae7306978ce3fd42890bd&amp;dn=Enrique+Bunbury+-+Llevame+%28h264%2Fmp4%29&amp;tr=udp%3A%2F%2Ftracker.openbittorrent.com%3A80&amp;tr=udp%3A%2F%2Fopen.demonii.com%3A1337&amp;tr=udp%3A%2F%2Ftracker.coppersurfer.tk%3A6969&amp;tr=udp%3A%2F%2Fexodus.desync.com%3A6969","seeders":1,"leechers":0,"uploader":"MusicVideos-HQ","files":1,"time":1329859124,"description":"General\n\nFormat : MPEG-4\nFormat profile : Base Media\nCodec ID : isom\nFile size : 127 MiB\nDuration : 5mn 19s\nOverall bit rate : 3 333 Kbps\nEncoded date : UTC 2012-02-18 15:58:58\nTagged date : UTC 2012-02-18 15:58:58\n\nVideo\nID : 1\nFormat : AVC\nFormat/Info : Advanced Video Codec\nFormat profile : &lt;a class=&quot;__cf_email__&quot; href=&quot;/cdn-cgi/l/email-protection&quot; data-cfemail=&quot;c68eafa1ae868af5e8f6&quot;&gt;[email&amp;#160;protected]&lt;/a&gt;&lt;script cf-hash='f9e31' type=&quot;text/javascript&quot;&gt;\n/* &lt;![CDATA[ */!function(){try{var t=&quot;currentScript&quot;in document?document.currentScript:function(){for(var t=document.getElementsByTagName(&quot;script&quot;),e=t.length;e--;)if(t[e].getAttribute(&quot;cf-hash&quot;))return t[e]}();if(t&amp;&amp;t.previousSibling){var e,r,n,i,c=t.previousSibling,a=c.getAttribute(&quot;data-cfemail&quot;);if(a){for(e=&quot;&quot;,r=parseInt(a.substr(0,2),16),n=2;a.length-n;n+=2)i=parseInt(a.substr(n,2),16)^r,e+=String.fromCharCode(i);e=document.createTextNode(e),c.parentNode.replaceChild(e,c)}}}catch(u){}}();/* ]]&gt; */&lt;/script&gt;\nFormat settings, CABAC : Yes\nFormat settings, ReFrames : 2 frames\nCodec ID : avc1\nCodec ID/Info : Advanced Video Coding\nDuration : 5mn 19s\nBit rate mode : Variable\nBit rate : 3 350 Kbps\nMaximum bit rate : 14.1 Mbps\nWidth : 720 pixels\nHeight : 480 pixels\nDisplay aspect ratio : 16:9\nOriginal display aspect ratio : 16:9\nFrame rate mode : Constant\nFrame rate : 25.000 fps\nStandard : NTSC\nColor space : YUV\nChroma subsampling : 4:2:0\nBit depth : 8 bits\nScan type : Progressive\nBits/(Pixel*Frame) : 0.388\nStream size : 124 MiB (98%)\n\n\nAudio\nID : 2\nFormat : AAC\nFormat/Info : Advanced Audio Codec\nFormat profile : LC\nCodec ID : 40\nDuration : 5mn 19s\nBit rate mode : Variable\nBit rate : 63.9 Kbps\nMaximum bit rate : 78.3 Kbps\nChannel(s) : 2 channels\nChannel positions : Front: L R\nSampling rate : 44.1 KHz\nCompression mode : Lossy\nStream size : 2.43 MiB (2%) ","torrent":{"xt":"urn:btih:faaddbff5f8582fcd98ae7306978ce3fd42890bd","amp;dn":"Enrique+Bunbury+-+Llevame+%28h264%2Fmp4%29","amp;tr":["udp%3A%2F%2Ftracker.openbittorrent.com%3A80","udp%3A%2F%2Fopen.demonii.com%3A1337","udp%3A%2F%2Ftracker.coppersurfer.tk%3A6969","udp%3A%2F%2Fexodus.desync.com%3A6969"],"infoHash":"faaddbff5f8582fcd98ae7306978ce3fd42890bd","infoHashBuffer":{"type":"Buffer","data":[250,173,219,255,95,133,130,252,217,138,231,48,105,120,206,63,212,40,144,189]},"announce":[],"urlList":[]}}